<svg xmlns="http://www.w3.org/2000/svg"  viewBox="0 0 48 48" width="24px" height="24px" baseProfile="basic"><path d="M18,43c-0.256,0-0.512-0.098-0.707-0.293l-16-16C1.105,26.52,1,26.265,1,26v-2c0-0.347,0.18-0.668,0.474-0.851	c0.295-0.182,0.663-0.198,0.973-0.044l15.466,7.733l26.511-18.656c0.307-0.215,0.707-0.241,1.037-0.07	C45.792,12.285,46,12.626,46,13v2c0,0.265-0.105,0.52-0.293,0.707l-27,27C18.512,42.902,18.256,43,18,43z"/><polygon fill="#fff" points="45,13 40,8 18,30 7,19 2,24 18,40"/><path d="M18,41c-0.256,0-0.512-0.098-0.707-0.293l-16-16c-0.391-0.391-0.391-1.023,0-1.414l5-5c0.391-0.391,1.023-0.391,1.414,0	L18,28.586L39.293,7.293c0.391-0.391,1.023-0.391,1.414,0l5,5c0.391,0.391,0.391,1.023,0,1.414l-27,27	C18.512,40.902,18.256,41,18,41z M3.414,24L18,38.586L43.586,13L40,9.414L18.707,30.707c-0.391,0.391-1.023,0.391-1.414,0L7,20.414	L3.414,24z"/></svg>