<svg width="74" height="25" viewBox="0 0 74 25" fill="none" xmlns="http://www.w3.org/2000/svg">
<path d="M10.1719 24.8906C8.48438 24.8906 6.91146 24.5052 5.45312 23.7344C3.99479 22.9635 2.8125 21.8125 1.90625 20.2812C1.01042 18.75 0.5625 16.8385 0.5625 14.5469C0.5625 12.7552 0.885417 11.0104 1.53125 9.3125C2.17708 7.61458 3.10938 6.08854 4.32812 4.73438C5.55729 3.36979 7.04688 2.28646 8.79688 1.48438C10.5469 0.682292 12.5208 0.28125 14.7188 0.28125C15.0521 0.28125 15.401 0.302083 15.7656 0.34375C16.1302 0.375 16.4948 0.421875 16.8594 0.484375L16.7969 2.07812C16.526 2.02604 16.2604 1.99479 16 1.98438C15.7396 1.96354 15.4896 1.95312 15.25 1.95312C13.5417 1.95312 12 2.27083 10.625 2.90625C9.26042 3.53125 8.09375 4.38021 7.125 5.45312C6.15625 6.52604 5.41146 7.73438 4.89062 9.07812C4.38021 10.4219 4.125 11.8073 4.125 13.2344C4.125 14.9844 4.50521 16.4792 5.26562 17.7188C6.03646 18.9479 7.03125 19.8854 8.25 20.5312C9.47917 21.1771 10.7812 21.5 12.1562 21.5C13.5417 21.5 14.7865 21.2656 15.8906 20.7969C17.0052 20.3177 17.974 19.6823 18.7969 18.8906C19.6198 18.0885 20.2865 17.2083 20.7969 16.25H20.5938C19.1771 16.25 17.8438 16.0052 16.5938 15.5156C15.3542 15.0156 14.3438 14.2708 13.5625 13.2812C12.7917 12.2812 12.4062 11.0312 12.4062 9.53125C12.4062 8.67708 12.599 7.88021 12.9844 7.14062C13.3802 6.39062 13.9896 5.78646 14.8125 5.32812C15.6458 4.86979 16.7135 4.64062 18.0156 4.64062C18.9427 4.64062 19.8438 4.90625 20.7188 5.4375C21.6042 5.95833 22.3333 6.76562 22.9062 7.85938C23.4792 8.94271 23.7656 10.3229 23.7656 12C23.7656 12.7188 23.7031 13.401 23.5781 14.0469C25.0052 13.8281 26.4635 13.276 27.9531 12.3906V13.8281C27.2552 14.3802 26.4844 14.8438 25.6406 15.2188C24.8073 15.5833 23.9479 15.8542 23.0625 16.0312C22.5729 17.3854 21.8698 18.6094 20.9531 19.7031C20.0469 20.7865 19.0052 21.7188 17.8281 22.5C16.651 23.2708 15.4062 23.8594 14.0938 24.2656C12.7812 24.6823 11.474 24.8906 10.1719 24.8906ZM21.625 14.2031C21.9062 13.3073 22.0469 12.4115 22.0469 11.5156C22.0469 10.5781 21.8854 9.72396 21.5625 8.95312C21.2396 8.17188 20.7448 7.55208 20.0781 7.09375C19.4219 6.63542 18.5938 6.40625 17.5938 6.40625C16.7083 6.40625 16.0677 6.59375 15.6719 6.96875C15.2865 7.33333 15.0938 7.80729 15.0938 8.39062C15.0938 9.49479 15.375 10.4844 15.9375 11.3594C16.5 12.224 17.2708 12.9115 18.25 13.4219C19.2396 13.9219 20.3646 14.1823 21.625 14.2031ZM27.3438 24.4531C26.875 24.4531 26.5417 24.2552 26.3438 23.8594C26.1458 23.4531 26.026 22.9635 25.9844 22.3906C25.9531 21.8177 25.9375 21.276 25.9375 20.7656C25.9375 19.401 26.0625 17.9531 26.3125 16.4219C26.5625 14.8802 26.9115 13.3333 27.3594 11.7812C27.8073 10.2292 28.3281 8.75521 28.9219 7.35938C29.526 5.95312 30.1771 4.70312 30.875 3.60938C31.5833 2.51562 32.3177 1.65104 33.0781 1.01562C33.8385 0.380208 34.6042 0.0625 35.375 0.0625C36.0625 0.0625 36.599 0.302083 36.9844 0.78125C37.3698 1.25 37.5625 1.84375 37.5625 2.5625C37.5625 3.88542 37.3646 5.17188 36.9688 6.42188C36.5833 7.67188 36.0833 8.84896 35.4688 9.95312C34.8646 11.0573 34.2188 12.0677 33.5312 12.9844C32.8438 13.8906 32.1927 14.6771 31.5781 15.3438C30.974 16 30.474 16.5104 30.0781 16.875C29.6927 17.2292 29.5 17.4062 29.5 17.4062C29.5 17.4062 29.474 17.625 29.4219 18.0625C29.3698 18.5 29.3125 19.0104 29.25 19.5938C29.1979 20.1667 29.1719 20.6562 29.1719 21.0625C29.1719 21.1875 29.1927 21.4062 29.2344 21.7188C29.2865 22.0208 29.4479 22.1719 29.7188 22.1719C29.875 22.1719 30.1927 21.9635 30.6719 21.5469C31.151 21.1302 31.7031 20.6042 32.3281 19.9688C32.9531 19.3333 33.5729 18.6875 34.1875 18.0312C34.8125 17.3646 35.349 16.7812 35.7969 16.2812V18.0312C33.8906 20.2917 32.2812 21.9271 30.9688 22.9375C29.6667 23.9479 28.4583 24.4531 27.3438 24.4531ZM29.9062 14.3438C30.8542 13.4896 31.6927 12.5208 32.4219 11.4375C33.151 10.3542 33.7656 9.27083 34.2656 8.1875C34.7656 7.09375 35.1458 6.10417 35.4062 5.21875C35.6667 4.33333 35.7969 3.66146 35.7969 3.20312C35.7969 2.94271 35.7604 2.65625 35.6875 2.34375C35.6146 2.02083 35.4271 1.85938 35.125 1.85938C34.5208 1.85938 33.9375 2.35938 33.375 3.35938C32.8229 4.35938 32.2656 5.79167 31.7031 7.65625C31.1406 9.52083 30.5417 11.75 29.9062 14.3438ZM36.2188 24.4531C35.6458 24.4531 35.0208 24.375 34.3438 24.2188C33.6771 24.0729 33.1042 23.8073 32.625 23.4219C32.1458 23.026 31.9062 22.474 31.9062 21.7656C31.9062 21.3281 32.0469 20.8646 32.3281 20.375C32.6094 19.8854 32.9583 19.3958 33.375 18.9062C33.7917 18.4062 34.2031 17.9427 34.6094 17.5156C35.026 17.0781 35.3646 16.6979 35.625 16.375C35.3438 15.6771 35.2031 14.974 35.2031 14.2656C35.2031 13.2656 35.6458 12.3958 36.5312 11.6562C37.4167 10.9062 38.8333 10.5312 40.7812 10.5312C40.9375 10.5312 41.1406 10.5625 41.3906 10.625C41.6406 10.6875 41.7656 10.8385 41.7656 11.0781C41.7656 11.5469 41.5625 11.9323 41.1562 12.2344C40.75 12.5365 40.2604 12.7604 39.6875 12.9062C39.1146 13.0521 38.5677 13.125 38.0469 13.125C38.2865 13.7812 38.6094 14.3542 39.0156 14.8438C39.4219 15.3333 39.8333 15.7708 40.25 16.1562C40.6771 16.5417 41.0365 16.901 41.3281 17.2344C41.6198 17.5677 41.7656 17.9115 41.7656 18.2656C41.7656 19.0365 41.401 19.9219 40.6719 20.9219C41.4427 20.2552 42.2135 19.6302 42.9844 19.0469C43.7656 18.4635 44.5417 17.7188 45.3125 16.8125V18.625C44.9271 19.1042 44.3802 19.6771 43.6719 20.3438C42.974 21 42.1875 21.6406 41.3125 22.2656C40.4479 22.8906 39.5677 23.4115 38.6719 23.8281C37.7865 24.2448 36.9688 24.4531 36.2188 24.4531ZM36.3906 23.2656C37.0365 23.2656 37.5781 23.151 38.0156 22.9219C38.4635 22.6927 38.6875 22.349 38.6875 21.8906C38.6875 21.3906 38.5521 20.8906 38.2812 20.3906C38.0208 19.8802 37.7031 19.3854 37.3281 18.9062C36.9635 18.4271 36.6198 17.9896 36.2969 17.5938C36.0781 17.8333 35.7448 18.1667 35.2969 18.5938C34.849 19.0104 34.4375 19.4479 34.0625 19.9062C33.6875 20.3646 33.5 20.7708 33.5 21.125C33.5 21.5625 33.6458 21.9427 33.9375 22.2656C34.2396 22.5781 34.6094 22.8229 35.0469 23C35.4948 23.1771 35.9427 23.2656 36.3906 23.2656ZM45.625 24.4531C44.9167 24.4531 44.4323 24.1823 44.1719 23.6406C43.9219 23.0885 43.7969 22.4844 43.7969 21.8281C43.7969 21.526 43.8177 21.224 43.8594 20.9219C43.901 20.6094 43.9531 20.3333 44.0156 20.0938C44.276 19.1146 44.6302 17.8906 45.0781 16.4219C45.5365 14.9427 46.0469 13.3958 46.6094 11.7812C46.6302 11.6458 46.8177 11.5521 47.1719 11.5C47.5365 11.4479 47.9167 11.4167 48.3125 11.4062C48.7188 11.3958 48.9948 11.3906 49.1406 11.3906H49.6875C49.6875 11.4219 49.599 11.7083 49.4219 12.25C49.2552 12.7917 49.0417 13.4688 48.7812 14.2812C48.5312 15.0938 48.276 15.9323 48.0156 16.7969C47.7656 17.651 47.5521 18.4271 47.375 19.125C47.2083 19.8125 47.125 20.2969 47.125 20.5781C47.125 21.0052 47.224 21.3073 47.4219 21.4844C47.6302 21.651 47.8802 21.7344 48.1719 21.7344C48.6094 21.7344 49.1042 21.6042 49.6562 21.3438C50.2083 21.0833 50.7031 20.7969 51.1406 20.4844C51.5781 20.1615 51.8385 19.9167 51.9219 19.75L53.6094 13.25C53.7865 12.5938 53.9896 12.1406 54.2188 11.8906C54.4479 11.6302 54.7135 11.4844 55.0156 11.4531C55.3177 11.4115 55.651 11.3906 56.0156 11.3906H57.0781C57.0781 11.3906 57.0104 11.6406 56.875 12.1406C56.7396 12.6302 56.5677 13.2552 56.3594 14.0156C56.151 14.776 55.9323 15.5677 55.7031 16.3906C55.4844 17.2135 55.2865 17.9688 55.1094 18.6562C54.9323 19.3333 54.8073 19.8333 54.7344 20.1562C54.724 20.3021 54.6979 20.5052 54.6562 20.7656C54.625 21.026 54.6094 21.2917 54.6094 21.5625C54.6094 21.7083 54.6302 21.8177 54.6719 21.8906C54.7135 21.9531 54.8229 21.9844 55 21.9844C55.2292 21.9844 55.6198 21.7708 56.1719 21.3438C56.724 20.9167 57.3854 20.3333 58.1562 19.5938C58.9271 18.8438 59.75 18.0052 60.625 17.0781V18.8438C60.0833 19.4896 59.4792 20.1458 58.8125 20.8125C58.1458 21.4688 57.4583 22.0729 56.75 22.625C56.0417 23.1771 55.3594 23.6198 54.7031 23.9531C54.0469 24.2865 53.4531 24.4531 52.9219 24.4531C52.3906 24.4531 52.0312 24.2448 51.8438 23.8281C51.6667 23.401 51.5781 22.9271 51.5781 22.4062C51.5781 21.8333 51.6302 21.349 51.7344 20.9531C51.1302 21.5365 50.474 22.099 49.7656 22.6406C49.0677 23.1719 48.3594 23.6094 47.6406 23.9531C46.9323 24.2865 46.2604 24.4531 45.625 24.4531ZM66.8125 24.4531C66.2708 24.4531 65.9271 24.3125 65.7812 24.0312C65.6354 23.75 65.5625 23.4948 65.5625 23.2656C65.5625 22.4323 65.6771 21.5885 65.9062 20.7344C66.1458 19.8802 66.4219 19.0625 66.7344 18.2812C67.0469 17.5 67.3177 16.7917 67.5469 16.1562C67.7865 15.5208 67.9062 15.0104 67.9062 14.625C67.9062 14.3542 67.8438 14.1458 67.7188 14C67.5938 13.8438 67.4531 13.7656 67.2969 13.7656C66.7865 13.7656 66.2708 14.0365 65.75 14.5781C65.2292 15.1198 64.724 15.8177 64.2344 16.6719C63.7552 17.526 63.3125 18.4271 62.9062 19.375C62.5104 20.3229 62.1719 21.2135 61.8906 22.0469C61.6198 22.8698 61.4271 23.5208 61.3125 24H58.3281C58.3385 23.5208 58.4062 22.8958 58.5312 22.125C58.6458 21.3542 58.8021 20.5208 59 19.625C59.2083 18.7188 59.4271 17.8177 59.6562 16.9219C59.8854 16.026 60.1146 15.2031 60.3438 14.4531C60.5729 13.6927 60.776 13.0885 60.9531 12.6406C61.1615 12.0885 61.4688 11.7448 61.875 11.6094C62.2812 11.4635 62.7552 11.3906 63.2969 11.3906H64.3438C64.3438 11.3906 64.2812 11.599 64.1562 12.0156C64.0417 12.4323 63.8906 12.9531 63.7031 13.5781C63.526 14.2031 63.3385 14.8333 63.1406 15.4688C62.9531 16.0938 62.7917 16.625 62.6562 17.0625C62.9688 16.4792 63.3854 15.8333 63.9062 15.125C64.4375 14.4167 65.0365 13.7396 65.7031 13.0938C66.3698 12.4479 67.0677 11.9167 67.7969 11.5C68.526 11.0833 69.2448 10.875 69.9531 10.875C70.974 10.875 71.4844 11.4844 71.4844 12.7031C71.4844 13.026 71.4115 13.4688 71.2656 14.0312C71.1198 14.5938 70.9375 15.2083 70.7188 15.875C70.5 16.5312 70.276 17.1823 70.0469 17.8281C69.8281 18.4635 69.6458 19.026 69.5 19.5156C69.3542 19.9948 69.2812 20.3281 69.2812 20.5156C69.2812 20.7031 69.3438 20.7969 69.4688 20.7969C69.6042 20.7969 69.7865 20.724 70.0156 20.5781C70.151 20.4844 70.3802 20.2917 70.7031 20C71.026 19.6979 71.3802 19.3594 71.7656 18.9844C72.1615 18.6094 72.5312 18.2552 72.875 17.9219C73.2292 17.5885 73.5 17.3438 73.6875 17.1875V18.9375C73.4375 19.1875 73.0833 19.5365 72.625 19.9844C72.1667 20.4219 71.6562 20.901 71.0938 21.4219C70.5312 21.9323 69.9688 22.4167 69.4062 22.875C68.8542 23.3333 68.3438 23.7083 67.875 24C67.4167 24.3021 67.0625 24.4531 66.8125 24.4531Z" fill="#372F62"/>
</svg>
