<svg width="25" height="24" viewBox="0 0 25 24" fill="none" xmlns="http://www.w3.org/2000/svg">
<path fill-rule="evenodd" clip-rule="evenodd" d="M18.7249 12.3085C17.5849 12.3085 16.5149 12.5385 15.6149 12.9285C18.7649 13.8385 20.9949 16.0185 21.0549 18.5685C22.6949 18.3585 24.4649 17.7385 24.4649 16.0485C24.4649 14.0185 21.8349 12.3085 18.7249 12.3085Z" fill="black"/>
<path fill-rule="evenodd" clip-rule="evenodd" d="M18.6949 10.8685H18.7149C20.8449 10.8685 22.5849 9.12855 22.5849 7.00855C22.5849 4.87855 20.8449 3.13855 18.7149 3.13855C18.2949 3.13855 17.8949 3.20855 17.5149 3.32855C18.2049 4.34855 18.6049 5.57855 18.6049 6.90855C18.6149 8.25855 18.1949 9.55855 17.4049 10.6385C17.8149 10.7885 18.2449 10.8685 18.6949 10.8685Z" fill="black"/>
<path fill-rule="evenodd" clip-rule="evenodd" d="M8.87491 12.9185C7.97491 12.5385 6.90491 12.3085 5.77491 12.3085C2.66491 12.3085 0.0349121 14.0185 0.0349121 16.0485C0.0349121 17.7385 1.79491 18.3485 3.43491 18.5685C3.48491 16.0185 5.71491 13.8385 8.87491 12.9185Z" fill="black"/>
<path fill-rule="evenodd" clip-rule="evenodd" d="M5.77492 10.8685H5.80492C6.25492 10.8685 6.68492 10.7885 7.09492 10.6385C6.33492 9.59855 5.88492 8.30855 5.88492 6.90855C5.88492 5.57855 6.28492 4.34855 6.97492 3.32855C6.59492 3.20855 6.19492 3.13855 5.77492 3.13855C3.64492 3.13855 1.91492 4.87855 1.91492 7.00855C1.91492 9.12855 3.64492 10.8685 5.77492 10.8685Z" fill="black"/>
<path fill-rule="evenodd" clip-rule="evenodd" d="M12.2445 13.9456C8.28352 13.9456 4.93652 16.1016 4.93652 18.6536C4.93652 21.9536 10.4365 21.9536 12.2445 21.9536C15.3825 21.9536 19.5545 21.6136 19.5545 18.6746C19.5545 16.1106 16.2065 13.9456 12.2445 13.9456Z" fill="black"/>
<path fill-rule="evenodd" clip-rule="evenodd" d="M12.2455 11.7746H12.2785C13.5735 11.7706 14.7895 11.2616 15.7015 10.3426C16.6145 9.42363 17.1145 8.20463 17.1095 6.91163C17.1095 4.22863 14.9285 2.04663 12.2455 2.04663C9.56351 2.04663 7.38251 4.22863 7.38251 6.91163C7.38251 9.59263 9.56351 11.7746 12.2455 11.7746Z" fill="black"/>
</svg>
