<svg width="22" height="22" viewBox="0 0 22 22" fill="none" xmlns="http://www.w3.org/2000/svg">
<path d="M20.2799 5.40005L10.7399 14.94C9.7899 15.89 6.96987 16.33 6.33987 15.7C5.70987 15.07 6.13987 12.25 7.08987 11.3L16.6399 1.75002C16.8754 1.49308 17.1605 1.28654 17.4781 1.14284C17.7956 0.999141 18.139 0.921241 18.4875 0.913901C18.8359 0.906571 19.1823 0.969911 19.5056 1.10012C19.8289 1.23033 20.1225 1.42473 20.3686 1.67153C20.6147 1.91833 20.8083 2.21243 20.9376 2.53609C21.0669 2.85976 21.1294 3.20626 21.1211 3.55471C21.1128 3.90316 21.0339 4.24635 20.8894 4.5635C20.7448 4.88065 20.5375 5.16524 20.2799 5.40005Z" stroke="black" stroke-width="1.5" stroke-linecap="round" stroke-linejoin="round"/>
<path d="M10 3H5C3.93913 3 2.92178 3.42142 2.17163 4.17157C1.42149 4.92172 1 5.93913 1 7V17C1 18.0609 1.42149 19.0783 2.17163 19.8284C2.92178 20.5786 3.93913 21 5 21H16C18.21 21 19 19.2 19 17V12" stroke="black" stroke-width="1.5" stroke-linecap="round" stroke-linejoin="round"/>
</svg>
